PathFileType	4	(X/Y/Z)	0_coords_data.trc
DataRate	CameraRate	NumFrames	NumMarkers	Units	OrigDataRate	OrigDataStartFrame	OrigNumFrames
30.0	30.0	7	21	m	30.0	22	53
Frame#	Time	THUMB_TIP	THUMB_IP	THUMB_MCP	THUMB_CMC	INDEX_TIP	INDEX_DIP	INDEX_PIP	INDEX_MCP	MIDDLE_TIP	MIDDLE_DIP	MIDDLE_PIP	MIDDLE_MCP	RING_TIP	RING_DIP	RING_PIP	RING_MCP	PINKY_TIP	PINKY_DIP	PINKY_PIP	PINKY_MCP	WRIST
X1	Y1	Z1	X2	Y2	Z2	X3	Y3	Z3	X4	Y4	Z4	X5	Y5	Z5	X6	Y6	Z6	X7	Y7	Z7	X8	Y8	Z8	X9	Y9	Z9	X10	Y10	Z10	X11	Y11	Z11	X12	Y12	Z12	X13	Y13	Z13	X14	Y14	Z14	X15	Y15	Z15	X16	Y16	Z16	X17	Y17	Z17	X18	Y18	Z18	X19	Y19	Z19	X20	Y20	Z20	X21	Y21	Z21
21	0.7	0.03576419830322266	-0.022556900024414062	0.95952099609375	0.019290399551391602	-0.019877199172973634	0.9810369873046875	0.007657440185546875	-0.028546300888061524	1.0141900024414063	-0.006028969764709472	-0.004284570217132569	1.0335	-0.005653669834136963	-0.057125701904296874	0.9018070068359375	-0.011353500366210937	-0.05285089874267578	0.925030029296875	-0.019003000259399414	-0.048453800201416014	0.948572998046875	-0.039013401031494144	-0.0387327995300293	0.9850239868164062	0.001634179949760437	-0.024359500885009766	0.979708984375	0.009211139678955078	-0.02713990020751953	0.9617509765625	-0.011629899978637696	-0.028078399658203124	0.940916015625	-0.04360329818725586	-0.015436100006103516	0.9742880249023438	0.009360130310058595	-0.00784211015701294	0.9779609985351563	0.016738000869750976	-0.009617039680480957	0.9587249755859375	-0.001926589965820312	-0.006628099918365478	0.9377059936523438	-0.031195899963378907	0.006856379985809326	0.9707340087890625	-0.014314700126647949	0.025493799209594728	0.8982479858398438	-0.012201899528503419	0.02468400001525879	0.92047802734375	-0.012134499549865722	0.023395299911499023	0.9411119995117188	-0.010030300140380859	0.022429800033569335	0.9719320068359375	-0.03706909942626953	0.015690400123596192	1.0561099853515625
22	0.7333333333333333	0.03561849975585937	-0.022943300247192384	0.9596409912109375	0.019309900283813478	-0.02035129928588867	0.9808619995117187	0.00756525993347168	-0.02888629913330078	1.01397998046875	-0.006166920185089111	-0.0046876401901245115	1.0335799560546874	-0.00551324987411499	-0.05738859939575195	0.9019320068359375	-0.01128660011291504	-0.053080001831054685	0.9251199951171875	-0.018954999923706056	-0.048565799713134766	0.9486859741210938	-0.03900730133056641	-0.03881549835205078	0.985114013671875	0.001636839985847473	-0.02459600067138672	0.9799039916992187	0.009212329864501953	-0.027465700149536133	0.9616240234375	-0.011409799575805664	-0.028306699752807616	0.9409940185546875	-0.0436775016784668	-0.015573699951171876	0.9744550170898437	0.010153800010681153	-0.008185669898986817	0.9775850219726563	0.016951000213623047	-0.009836230278015137	0.9589349975585938	-0.001929589986801147	-0.006784309864044189	0.9378690185546875	-0.031154699325561523	0.006769499778747559	0.9708319702148438	-0.014362500190734864	0.02511779975891113	0.8982919921875	-0.012247900009155273	0.024349199295043946	0.9205079956054687	-0.012081600189208985	0.02317639923095703	0.9412030029296875	-0.009989009857177735	0.022218399047851563	0.97197802734375	-0.03705080032348633	0.01565369987487793	1.0561700439453126
23	0.7666666666666667	0.03576160049438477	-0.02303059959411621	0.9599119873046875	0.019343999862670897	-0.02053499984741211	0.980573974609375	0.007496729850769043	-0.029042299270629884	1.0140800170898439	-0.006177450180053711	-0.0046339998245239255	1.0339000244140626	-0.005507909774780274	-0.057590099334716795	0.9019990234375	-0.01134280014038086	-0.053259498596191404	0.9252130126953125	-0.019010099411010742	-0.04875120162963867	0.9486829833984375	-0.03912720108032226	-0.038967601776123045	0.9851619873046875	0.002408790111541748	-0.024565200805664062	0.9799990234375	0.009128100395202636	-0.027642400741577148	0.9616959838867187	-0.011666999816894532	-0.028451900482177734	0.9410469970703125	-0.04370339965820313	-0.015771499633789064	0.9745020141601562	0.010700300216674804	-0.008224109649658203	0.9772260131835937	0.01691790008544922	-0.010187999725341797	0.9586199951171875	-0.00188332998752594	-0.007011819839477539	0.9377630004882812	-0.03146159934997558	0.006582509994506836	0.9709860229492188	-0.014719799995422363	0.024698299407958986	0.8981589965820312	-0.012435799598693847	0.02401300048828125	0.9204949951171875	-0.012227499961853027	0.02291860008239746	0.9411939697265626	-0.010030400276184083	0.02199049949645996	0.972010986328125	-0.0374109992980957	0.015556099891662598	1.0564100341796876
24	0.8	0.03555569839477539	-0.02315889930725098	0.9597670288085938	0.019039100646972656	-0.020522600173950196	0.9809669799804688	0.0073557100296020505	-0.02917009925842285	1.0140499877929687	-0.006184869766235351	-0.004693309783935547	1.033780029296875	-0.005684629917144775	-0.05773320007324219	0.9020120239257813	-0.011514100074768066	-0.05339059829711914	0.9252750244140625	-0.019283899307250975	-0.04891780090332031	0.948676025390625	-0.03934420013427734	-0.039122100830078124	0.9851060180664063	0.0021735401153564447	-0.02465169906616211	0.9800059814453125	0.008980210304260255	-0.027673000335693358	0.9617979736328125	-0.011936400413513184	-0.0285487003326416	0.9410369873046875	-0.04391339874267578	-0.01585490036010742	0.9745239868164063	0.010840499877929687	-0.008460869789123535	0.976989990234375	0.016427499771118164	-0.010023900032043457	0.9592789916992187	-0.0021623198986053457	-0.0071622800827026364	0.9377479858398438	-0.03144569969177246	0.006422860145568848	0.9708200073242188	-0.015126399993896485	0.024247900009155273	0.8982349853515625	-0.012782999992370606	0.023621200561523437	0.920468017578125	-0.012540800094604492	0.022607000350952148	0.9410670166015624	-0.010330400466918944	0.021973400115966796	0.9720250244140625	-0.03727420043945313	0.01569950008392334	1.0560999755859375
25	0.8333333333333334	0.03529570007324219	-0.02338570022583008	0.9596090087890625	0.018866100311279298	-0.020585500717163085	0.9809710083007812	0.007231729984283447	-0.029218599319458007	1.014	-0.006445209980010986	-0.004390140056610107	1.034199951171875	-0.005886990070343018	-0.05789199829101563	0.9020969848632813	-0.011734999656677247	-0.05353070068359375	0.9252620239257813	-0.019550500869750978	-0.048947799682617185	0.94872900390625	-0.03948590087890625	-0.039232101440429684	0.98502099609375	0.001857499957084655	-0.02473520088195801	0.9802509765625	0.008600959777832031	-0.02786090087890625	0.9617769775390625	-0.01216919994354248	-0.028683799743652344	0.9409539794921875	-0.0441234016418457	-0.0158882999420166	0.9743410034179687	0.010251099586486817	-0.008478110313415527	0.9777230224609375	0.016336000442504883	-0.010329400062561035	0.9587440185546875	-0.002489150047302246	-0.007310289859771728	0.9377680053710937	-0.03157550048828125	0.006361470222473143	0.9707160034179687	-0.015537500381469727	0.023813400268554687	0.8982100219726562	-0.013118000030517578	0.023238800048828126	0.920416015625	-0.01285550022125244	0.022317100524902343	0.9409819946289063	-0.010513600349426269	0.02175779914855957	0.9718109741210937	-0.03734769821166992	0.015579099655151368	1.05597998046875
26	0.8666666666666667	0.03505450057983398	-0.023481800079345704	0.9596729736328125	0.0187726993560791	-0.020693500518798827	0.9809030151367187	0.00708830976486206	-0.029206499099731446	1.0138900146484375	-0.0065016398429870595	-0.0047534298896789555	1.033550048828125	-0.0059412398338317875	-0.05789250183105469	0.902073974609375	-0.011862000465393067	-0.053568199157714845	0.925197021484375	-0.019665199279785155	-0.049005599975585935	0.948718994140625	-0.039640098571777346	-0.03920270156860352	0.9849840087890624	0.002007319927215576	-0.024794300079345702	0.9795900268554687	0.00853853988647461	-0.027830400466918946	0.9618049926757812	-0.01233310031890869	-0.028697200775146484	0.940969970703125	-0.04426350021362305	-0.015962100028991698	0.9744420166015625	0.010158300399780273	-0.008709179878234862	0.9764749755859375	0.016120800018310545	-0.01015250015258789	0.9594869995117188	-0.002594579935073852	-0.0072781901359558095	0.93772998046875	-0.03179509925842285	0.006269480228424072	0.9706790161132812	-0.015969499588012696	0.02366939926147461	0.8981909790039062	-0.01345800018310547	0.023158700942993164	0.9203920288085937	-0.013202199935913086	0.02221780014038086	0.9409559936523437	-0.010779899597167969	0.021818599700927734	0.971916015625	-0.03768030166625977	0.01561520004272461	1.0561400146484374
27	0.9	0.03499039840698242	-0.02345639991760254	0.959708984375	0.018567699432373047	-0.02072570037841797	0.981031982421875	0.0070073499679565426	-0.02912980079650879	1.0139199829101562	-0.006726089954376221	-0.004791679859161377	1.03372998046875	-0.006002049922943115	-0.05786949920654297	0.9021240234375	-0.011910900115966797	-0.05350500106811523	0.9252579956054687	-0.01976219940185547	-0.04893000030517578	0.9487890014648438	-0.03991600036621094	-0.03905160140991211	0.98522802734375	0.0019462399482727051	-0.024374500274658203	0.9807470092773437	0.008516989707946777	-0.027752500534057617	0.9617069702148437	-0.012401100158691405	-0.028644500732421876	0.9409910278320313	-0.04429010009765625	-0.015861399650573732	0.9743280029296875	0.0102701997756958	-0.00841819953918457	0.977375	0.016185600280761717	-0.010384300231933593	0.9586370239257812	-0.002687750101089477	-0.007190589904785156	0.9377520141601563	-0.03194599914550781	0.006366690158843994	0.970677978515625	-0.016144699096679687	0.02362470054626465	0.8981439819335938	-0.01357759952545166	0.023118600845336915	0.9203569946289063	-0.013258899688720703	0.02226169967651367	0.9409119873046875	-0.01077690029144287	0.02182029914855957	0.9716890258789063	-0.03752230072021484	0.015622900009155274	1.0558299560546875
